<?xml version="1.0" encoding="UTF-8" standalone="no"?>
<svg
   xmlns:dc="http://purl.org/dc/elements/1.1/"
   xmlns:cc="http://creativecommons.org/ns#"
   xmlns:rdf="http://www.w3.org/1999/02/22-rdf-syntax-ns#"
   xmlns:svg="http://www.w3.org/2000/svg"
   xmlns="http://www.w3.org/2000/svg"
   viewBox="0 0 793.70135 1122.52"
   height="1122.52"
   width="793.70135"
   xml:space="preserve"
   id="svg2"
   version="1.1"><metadata
     id="metadata8"><rdf:RDF><cc:Work
         rdf:about=""><dc:format>image/svg+xml</dc:format><dc:type
           rdf:resource="http://purl.org/dc/dcmitype/StillImage" /></cc:Work></rdf:RDF></metadata><defs
     id="defs6"><clipPath
       id="clipPath18"
       clipPathUnits="userSpaceOnUse"><path
         id="path16"
         d="M 0,841.89 H 595.276 V 0 H 0 Z" /></clipPath></defs><g
     transform="matrix(1.3333333,0,0,-1.3333333,0,1122.52)"
     id="g10"><g
       id="g12"><g
         clip-path="url(#clipPath18)"
         id="g14"><g
           transform="translate(211.5215,511.5719)"
           id="g20"><path
             id="path22"
             style="fill:#1d1d1d;fill-opacity:1;fill-rule:nonzero;stroke:none"
             d="m 0,0 c 0.945,2.859 1.944,40.276 -0.062,53.284 -3.395,22.008 -13.606,38.222 -29.174,50.371 -9.151,7.141 -19.657,10.624 -30.262,13.465 -4.117,1.102 -8.434,1.493 -12.673,1.628 -6.101,0.195 -10.474,-3.528 -11.709,-10.424 -0.809,-4.521 -1.007,-9.373 -0.594,-13.97 1.218,-13.566 6.327,-25.842 10.956,-38.055 C -65.907,36.22 -51.715,22.901 -36.039,11.708 -25.52,4.198 -0.43,0.164 0,0" /></g><g
           transform="translate(249.3384,477.861)"
           id="g24"><path
             id="path26"
             style="fill:#1d1d1d;fill-opacity:1;fill-rule:nonzero;stroke:none"
             d="m 0,0 c 0.365,0.472 3.911,8.061 -1.008,12.98 -4.445,4.445 -9.232,7.592 -14.686,9.707 -3.369,1.306 -6.69,2.78 -10.044,4.139 -3.634,1.472 -5.916,2.397 -7.35,3.598 -0.695,-2.365 -0.352,-17.646 0.826,-22.907 2.151,-9.604 8.564,-15.785 16.299,-15.636 C -9.722,-7.999 -4.286,-5.536 0,0" /></g><g
           transform="translate(278.1001,671.0529)"
           id="g28"><path
             id="path30"
             style="fill:#1d1d1d;fill-opacity:1;fill-rule:nonzero;stroke:none"
             d="m 0,0 c -1.398,9.375 -2.524,18.937 -5.109,27.905 -2.083,7.228 -5.401,14.422 -9.556,20.321 -6.29,8.93 -17.4,7.281 -22.195,-2.823 -2.199,-4.633 -3.565,-9.987 -4.493,-15.215 -1.689,-9.523 -0.166,-19.127 1.581,-28.408 4.006,-21.294 8.705,-42.416 12.982,-63.645 3.124,-15.501 6.677,-30.948 8.811,-46.635 1.652,-12.144 2.293,-24.683 1.735,-36.934 -0.5,-10.952 -8.355,-60.306 -3.354,-52.832 0.223,0.106 6.764,10.393 8.279,13.383 8.373,16.525 11.565,35.091 12.79,53.974 1.119,17.245 1.697,34.587 1.632,51.889 C 3.004,-52.654 3.907,-26.193 0,0" /></g><g
           transform="translate(254.1338,465.0963)"
           id="g32"><path
             id="path34"
             style="fill:#1d1d1d;fill-opacity:1;fill-rule:nonzero;stroke:none"
             d="m 0,0 c -0.74,-0.534 -9.02,-14.854 -10.998,-18.628 -7.082,-13.517 -8.254,-29.34 -5.649,-46.429 3.802,-24.947 12.132,-46.753 23.034,-66.515 0.689,-1.248 2.124,-2.157 3.139,-2.116 0.558,0.022 1.298,2.269 1.391,3.666 1.326,20.011 2.607,34.746 2.565,54.951 C 13.39,-30.969 1.135,-1.13 0,0" /></g><g
           transform="translate(302.6504,632.8116)"
           id="g36"><path
             id="path38"
             style="fill:#1d1d1d;fill-opacity:1;fill-rule:nonzero;stroke:none"
             d="m 0,0 c 1.763,-24.067 3.118,-48.137 4.508,-72.206 l 1.886,-36.104 1.571,-36.106 c 0.479,-12.035 1.42,-24.069 2.148,-36.103 0.729,-12.035 0.835,-24.071 0.259,-36.112 -0.563,-12.039 -1.517,-24.081 -2.926,-36.124 -1.464,-12.044 -3.235,-24.089 -6.217,-36.14 -0.143,-0.58 -0.73,-0.934 -1.31,-0.791 -0.4,0.1 -0.692,0.411 -0.789,0.783 -3.083,12.024 -4.958,24.053 -6.525,36.085 -1.51,12.031 -2.566,24.063 -3.232,36.098 -0.679,12.035 -0.675,24.072 -0.049,36.113 0.626,12.04 1.465,24.081 1.841,36.12 l 1.264,36.117 1.579,36.12 c 1.184,24.08 2.335,48.159 3.892,72.241 0.038,0.58 0.538,1.02 1.119,0.982 C -0.45,0.939 -0.037,0.516 0,0" /></g><g
           transform="translate(291.1812,334.1847)"
           id="g40"><path
             id="path42"
             style="fill:#1d1d1d;fill-opacity:1;fill-rule:nonzero;stroke:none"
             d="m 0,0 c 5.327,-10.621 5.708,-21.204 0.854,-23.64 -4.856,-2.434 -13.109,4.202 -18.436,14.822 -5.327,10.621 -5.709,21.205 -0.854,23.639 C -13.58,17.257 -5.326,10.62 0,0" /></g><g
           transform="translate(265.3228,320.337)"
           id="g44"><path
             id="path46"
             style="fill:#1d1d1d;fill-opacity:1;fill-rule:nonzero;stroke:none"
             d="m 0,0 c 6.092,-7.627 11.861,-15.033 18.201,-21.366 3.163,-3.135 6.458,-5.985 9.873,-8.071 3.405,-2.108 6.865,-3.346 10.123,-3.385 3.252,-0.068 6.605,0.973 9.947,3.051 1.682,0.997 3.31,2.25 4.927,3.624 1.61,1.37 3.183,2.89 4.724,4.49 6.199,6.44 11.706,14.102 17.942,21.657 -0.78,-4.856 -2.132,-9.547 -3.848,-14.15 -1.738,-4.593 -3.918,-9.064 -6.673,-13.335 -0.682,-1.069 -1.449,-2.103 -2.191,-3.154 -0.815,-1.011 -1.594,-2.042 -2.496,-3.014 -1.716,-1.998 -3.723,-3.828 -5.955,-5.509 -2.238,-1.67 -4.784,-3.102 -7.602,-4.151 -2.82,-1.028 -5.935,-1.575 -9.038,-1.504 -3.101,0.07 -6.155,0.724 -8.886,1.828 -2.73,1.117 -5.214,2.539 -7.41,4.197 -2.196,1.659 -4.175,3.462 -5.927,5.408 -1.776,1.92 -3.342,3.961 -4.776,6.05 -2.845,4.195 -5.138,8.617 -6.977,13.183 C 2.151,-9.576 0.689,-4.883 0,0" /></g><g
           transform="translate(393.2471,511.9928)"
           id="g48"><path
             id="path50"
             style="fill:#1d1d1d;fill-opacity:1;fill-rule:nonzero;stroke:none"
             d="m 0,0 c -0.944,2.859 -1.944,40.276 0.062,53.284 3.395,22.008 13.606,38.222 29.174,50.371 9.151,7.14 19.657,10.624 30.261,13.464 4.118,1.103 8.435,1.493 12.675,1.629 6.1,0.195 10.474,-3.528 11.708,-10.424 0.809,-4.521 1.007,-9.373 0.594,-13.97 C 83.256,80.787 78.147,68.512 73.518,56.299 65.907,36.22 51.716,22.901 36.039,11.708 25.52,4.198 0.43,0.163 0,0" /></g><g
           transform="translate(355.4307,478.2819)"
           id="g52"><path
             id="path54"
             style="fill:#1d1d1d;fill-opacity:1;fill-rule:nonzero;stroke:none"
             d="m 0,0 c -0.365,0.472 -3.912,8.061 1.008,12.98 4.445,4.445 9.232,7.592 14.685,9.707 3.369,1.306 6.691,2.78 10.045,4.139 3.633,1.471 5.915,2.397 7.35,3.598 C 33.783,28.059 33.44,12.778 32.262,7.517 30.111,-2.087 23.697,-8.268 15.963,-8.119 9.722,-7.999 4.285,-5.536 0,0" /></g><g
           transform="translate(326.6689,671.4738)"
           id="g56"><path
             id="path58"
             style="fill:#1d1d1d;fill-opacity:1;fill-rule:nonzero;stroke:none"
             d="m 0,0 c 1.398,9.375 2.524,18.937 5.108,27.905 2.084,7.228 5.402,14.422 9.556,20.32 6.291,8.931 17.4,7.282 22.195,-2.822 2.2,-4.633 3.566,-9.987 4.494,-15.215 1.689,-9.523 0.166,-19.127 -1.581,-28.408 -4.006,-21.294 -8.706,-42.416 -12.983,-63.645 -3.123,-15.502 -6.677,-30.948 -8.81,-46.635 -1.653,-12.144 -2.293,-24.684 -1.735,-36.934 0.499,-10.952 8.355,-60.306 3.354,-52.832 -0.224,0.106 -6.764,10.393 -8.279,13.383 -8.374,16.525 -11.565,35.091 -12.791,53.973 -1.119,17.246 -1.697,34.588 -1.632,51.89 C -3.004,-52.654 -3.907,-26.193 0,0" /></g><g
           transform="translate(350.6348,465.5172)"
           id="g60"><path
             id="path62"
             style="fill:#1d1d1d;fill-opacity:1;fill-rule:nonzero;stroke:none"
             d="m 0,0 c 0.74,-0.534 9.021,-14.854 10.998,-18.628 7.082,-13.517 8.255,-29.34 5.649,-46.429 -3.802,-24.947 -12.132,-46.754 -23.035,-66.515 -0.687,-1.248 -2.123,-2.157 -3.138,-2.116 -0.558,0.022 -1.298,2.269 -1.391,3.666 -1.325,20.011 -2.607,34.746 -2.564,54.951 C -13.39,-30.969 -1.136,-1.13 0,0" /></g><g
           transform="translate(313.5879,334.6056)"
           id="g64"><path
             id="path66"
             style="fill:#1d1d1d;fill-opacity:1;fill-rule:nonzero;stroke:none"
             d="m 0,0 c -5.327,-10.621 -5.709,-21.205 -0.854,-23.64 4.855,-2.434 13.109,4.202 18.436,14.822 5.326,10.621 5.708,21.205 0.853,23.639 C 13.58,17.256 5.326,10.62 0,0" /></g><g
           transform="translate(143.3179,163.7687)"
           id="g68"><path
             id="path70"
             style="fill:#1d1d1d;fill-opacity:1;fill-rule:nonzero;stroke:none"
             d="m 0,0 0.187,-0.465 c -1.303,-0.744 -3.132,-1.581 -5.488,-2.511 -2.915,-1.116 -4.805,-1.892 -5.673,-2.325 -4.464,-2.108 -7.875,-3.162 -10.23,-3.162 -2.79,0 -4.961,1.147 -6.51,3.442 -1.241,2.168 -2.45,4.338 -3.627,6.509 -1.674,2.293 -3.999,3.441 -6.974,3.441 -2.543,0 -5.288,-1.209 -8.231,-3.627 -2.946,-2.418 -4.975,-3.627 -6.092,-3.627 -1.241,0 -1.86,0.898 -1.86,2.697 0,1.054 1.302,3.844 3.906,8.37 0.93,1.612 2.014,4.185 3.255,7.719 0.744,2.107 1.828,4.681 3.255,7.719 2.107,4.588 5.176,12.895 9.207,24.924 1.549,4.587 3.379,7.501 5.487,8.742 0.93,0.496 1.861,0.744 2.79,0.744 1.612,0 2.418,-0.837 2.418,-2.511 0,-0.992 -0.59,-2.666 -1.767,-5.022 -1.427,-2.976 -2.201,-4.619 -2.324,-4.929 -0.559,-1.859 -1.489,-4.589 -2.791,-8.184 -2.729,-6.821 -6.666,-15.345 -11.811,-25.575 -0.186,-0.372 -0.278,-0.962 -0.278,-1.766 0,-0.435 0.06,-0.807 0.185,-1.117 0.433,-0.434 1.054,-0.651 1.861,-0.651 1.052,0 3.192,0.402 6.417,1.209 3.222,0.806 5.238,1.209 6.044,1.209 2.479,0 4.525,-1.076 6.138,-3.231 1.302,-1.969 2.605,-3.939 3.906,-5.908 1.674,-2.153 3.844,-3.23 6.51,-3.23 1.736,0 3.921,0.542 6.557,1.628 2.635,1.084 4.106,1.627 4.417,1.627 C -0.248,2.139 0.124,1.426 0,0" /></g><g
           transform="translate(158.104,179.5792)"
           id="g72"><path
             id="path74"
             style="fill:#1d1d1d;fill-opacity:1;fill-rule:nonzero;stroke:none"
             d="m 0,0 c 0,1.859 -0.59,3.518 -1.767,4.975 -1.178,1.456 -2.697,2.185 -4.557,2.185 -2.976,0 -5.394,-1.859 -7.254,-5.58 -1.613,-3.101 -2.418,-6.293 -2.418,-9.578 0,-4.341 1.302,-6.511 3.906,-6.511 0.805,0 1.674,0.247 2.604,0.744 C -3.162,-10.665 0,-6.077 0,0 m 37.479,-13.672 c 0,-0.62 -0.218,-1.24 -0.651,-1.859 -1.674,-2.358 -3.659,-3.906 -5.952,-4.651 -1.736,-0.62 -4.247,-0.929 -7.533,-0.929 -0.683,0 -4.247,0.03 -10.695,0.092 -2.729,0 -4.836,0.899 -6.324,2.698 -0.249,0.309 -1.023,2.076 -2.325,5.3 -1.055,2.605 -2.139,3.907 -3.255,3.907 -1.302,0 -3.255,-1.644 -5.859,-4.929 -1.427,-1.985 -2.883,-3.999 -4.371,-6.046 -0.62,-0.806 -1.86,-1.705 -3.72,-2.696 -1.86,-0.993 -3.317,-1.488 -4.371,-1.488 -3.845,0 -5.766,2.479 -5.766,7.44 0,2.728 0.651,5.579 1.953,8.556 0.805,1.983 2.077,4.866 3.813,8.648 1.611,3.224 4.092,6.711 7.44,10.463 3.348,3.751 6.727,5.627 10.137,5.627 2.728,0 5.053,-0.895 6.975,-2.68 1.984,-1.97 3.13,-5.142 3.441,-9.516 0.433,-4.991 1.209,-8.377 2.325,-10.163 0.93,-1.541 2.325,-2.912 4.185,-4.112 1.86,-1.201 3.627,-1.802 5.301,-1.802 h 11.811 c 2.293,0.062 3.441,-0.557 3.441,-1.86" /></g><g
           transform="translate(265.5181,201.5265)"
           id="g76"><path
             id="path78"
             style="fill:#1d1d1d;fill-opacity:1;fill-rule:nonzero;stroke:none"
             d="m 0,0 c 0,3.286 -1.799,5.92 -5.394,7.905 -2.976,1.674 -6.263,2.511 -9.858,2.511 -3.41,0 -5.208,-1.427 -5.394,-4.277 l -0.558,-7.72 c -0.125,-1.55 -1.023,-4.092 -2.696,-7.626 -1.551,-3.287 -2.326,-5.921 -2.326,-7.904 0,-1.738 0.651,-3.302 1.954,-4.698 1.301,-1.394 2.82,-2.091 4.556,-2.091 1.549,0 3.255,0.774 5.115,2.324 0.745,0.558 2.139,1.922 4.185,4.093 4.029,4.152 6.417,6.756 7.161,7.811 C -1.085,-6.635 0,-3.41 0,0 m 20.46,-42.222 c -1.799,-1.488 -6.635,-2.232 -14.508,-2.232 -2.666,0 -5.952,0.466 -9.858,1.395 -3.101,0.682 -6.17,1.364 -9.207,2.046 -3.845,0.992 -6.821,2.17 -8.928,3.534 -1.488,1.054 -2.976,2.077 -4.464,3.069 -1.985,1.303 -3.597,1.953 -4.836,1.953 -1.116,0 -2.108,-1.218 -2.975,-3.651 -1.428,-3.996 -2.265,-6.211 -2.512,-6.647 -1.302,-2.435 -3.038,-3.651 -5.208,-3.651 -1.178,0 -2.217,0.448 -3.115,1.349 -0.9,0.901 -1.349,1.942 -1.349,3.121 0,1.677 1.519,6.397 4.558,14.16 1.611,3.912 3.208,7.809 4.789,11.69 1.581,3.882 2.96,8.462 4.138,13.741 0.868,3.974 3.13,7.266 6.789,9.874 1.425,1.055 2.139,1.615 2.139,1.677 0,0.497 -0.714,0.683 -2.139,0.56 l -9.951,-0.931 c -1.613,-0.125 -4.046,-1.597 -7.301,-4.417 -3.254,-2.822 -5.844,-4.231 -7.765,-4.231 -0.683,0 -1.302,0.185 -1.86,0.557 -0.186,0.31 -0.279,0.682 -0.279,1.116 0,1.489 1.024,2.913 3.069,4.279 1.612,1.115 3.316,1.89 5.115,2.324 8.679,2.047 13.33,3.162 13.95,3.349 5.083,0.991 9.766,1.487 14.043,1.487 5.269,0 9.981,-0.465 14.136,-1.395 6.138,-1.364 9.92,-3.627 11.346,-6.789 0.744,-1.613 1.117,-3.38 1.117,-5.301 0,-2.915 -0.745,-5.487 -2.233,-7.718 -0.807,-1.303 -2.603,-3.319 -5.393,-6.045 -1.8,-1.8 -4.651,-4.279 -8.557,-7.441 -1.674,-0.992 -3.38,-1.985 -5.115,-2.975 -2.418,-1.614 -3.627,-3.07 -3.627,-4.371 0,-1.8 1.456,-3.38 4.371,-4.743 1.426,-0.684 4.06,-1.768 7.905,-3.255 4.339,-1.614 6.85,-2.451 7.533,-2.512 2.728,-0.186 5.488,-0.341 8.277,-0.465 4.34,-0.372 6.975,-0.962 7.905,-1.767 0.061,-0.125 0.094,-0.249 0.094,-0.372 z" /></g><g
           transform="translate(306.3447,208.5948)"
           id="g80"><path
             id="path82"
             style="fill:#1d1d1d;fill-opacity:1;fill-rule:nonzero;stroke:none"
             d="m 0,0 c -1.179,0 -1.985,0.279 -2.418,0.837 -0.062,0.124 -0.093,0.247 -0.093,0.372 0,0.744 0.279,1.332 0.837,1.767 1.86,1.177 4.402,3.006 7.626,5.487 1.86,2.355 3.75,4.681 5.673,6.975 2.355,2.727 4.959,4.092 7.812,4.092 2.355,0 3.534,-0.899 3.534,-2.697 0,-2.232 -2.046,-5.022 -6.138,-8.37 C 15.841,7.594 13.02,5.58 8.37,2.418 6.013,0.805 3.223,0 0,0 m -2.511,-22.271 c 0,1.625 -0.776,2.907 -2.325,3.845 -1.302,0.875 -2.789,1.314 -4.463,1.314 -1.737,0 -3.442,-0.532 -5.116,-1.594 -1.798,-1.251 -2.697,-2.721 -2.697,-4.407 0,-1.626 0.744,-2.94 2.233,-3.94 1.301,-0.813 2.79,-1.219 4.463,-1.219 1.736,0 3.487,0.579 5.255,1.735 1.766,1.157 2.65,2.578 2.65,4.266 m 19.623,-22.937 c 0,-0.938 -0.993,-1.879 -2.976,-2.817 -1.427,-0.753 -2.823,-1.286 -4.185,-1.598 -10.478,-2.569 -17.856,-3.852 -22.133,-3.852 -11.1,0 -16.648,3.23 -16.648,9.692 0,6.089 1.177,11.433 3.535,16.031 2.169,4.101 5.64,8.325 10.416,12.676 3.409,3.106 7.004,4.66 10.787,4.66 2.356,0 4.557,-0.808 6.603,-2.424 2.046,-1.616 3.069,-3.575 3.069,-5.875 0,-2.486 -1.985,-5.221 -5.952,-8.204 -1.488,-1.305 -3.69,-2.953 -6.603,-4.942 l -9.578,-3.45 c -2.233,-0.808 -3.349,-1.99 -3.349,-3.543 0,-2.92 1.735,-5.096 5.208,-6.526 2.542,-1.058 5.487,-1.585 8.835,-1.585 3.595,0 7.657,0.353 12.183,1.06 0.558,0.063 1.984,0.384 4.278,0.963 1.797,0.449 3.254,0.674 4.371,0.674 1.425,0 2.139,-0.314 2.139,-0.94" /></g><g
           transform="translate(356.0986,165.5587)"
           id="g84"><path
             id="path86"
             style="fill:#1d1d1d;fill-opacity:1;fill-rule:nonzero;stroke:none"
             d="m 0,0 c 0,-3.169 -2.172,-5.81 -6.511,-7.922 -3.596,-1.679 -7.223,-2.516 -10.881,-2.516 -3.596,0 -7.843,1.153 -12.741,3.463 -5.58,2.621 -8.37,5.429 -8.37,8.425 0,1.436 0.744,2.154 2.232,2.154 1.674,0 5.239,-1.55 10.696,-4.65 5.455,-3.1 9.36,-4.65 11.718,-4.65 2.603,0 3.906,0.964 3.906,2.89 0,2.174 -0.993,4.475 -2.977,6.899 -0.992,1.179 -2.821,2.949 -5.486,5.312 -2.232,1.927 -5.612,4.816 -10.138,8.669 -1.859,1.616 -2.79,3.853 -2.79,6.711 0,2.859 1.519,5.003 4.558,6.433 0.247,0.124 2.975,0.931 8.183,2.423 2.356,0.682 4.588,1.025 6.697,1.025 5.331,0 7.998,-1.364 7.998,-4.092 0,-0.744 -0.28,-1.427 -0.837,-2.046 -0.559,-0.621 -1.209,-0.93 -1.953,-0.93 -1.302,0 -3.255,0.511 -5.86,1.535 -2.603,1.022 -4.526,1.534 -5.765,1.534 -2.233,0 -3.349,-1.399 -3.349,-4.195 0,-2.485 1.271,-4.66 3.814,-6.525 2.169,-1.429 4.371,-2.858 6.602,-4.286 0.868,-0.996 2.14,-2.379 3.814,-4.149 C -5.767,9.74 -4.062,8.016 -2.325,6.339 -0.776,4.475 0,2.361 0,0" /></g><g
           transform="translate(382.9756,186.3243)"
           id="g88"><path
             id="path90"
             style="fill:#1d1d1d;fill-opacity:1;fill-rule:nonzero;stroke:none"
             d="m 0,0 c 0,1.624 -0.776,2.906 -2.325,3.845 -1.302,0.875 -2.79,1.313 -4.464,1.313 -1.736,0 -3.441,-0.531 -5.115,-1.594 -1.799,-1.251 -2.698,-2.72 -2.698,-4.407 0,-1.626 0.745,-2.939 2.233,-3.939 1.302,-0.814 2.79,-1.22 4.464,-1.22 1.735,0 3.487,0.579 5.255,1.735 C -0.884,-3.109 0,-1.688 0,0 m 19.623,-22.937 c 0,-0.939 -0.993,-1.879 -2.977,-2.818 -1.426,-0.753 -2.822,-1.285 -4.184,-1.598 -10.479,-2.569 -17.857,-3.851 -22.134,-3.851 -11.099,0 -16.647,3.229 -16.647,9.691 0,6.089 1.176,11.434 3.534,16.032 2.169,4.1 5.64,8.325 10.416,12.675 3.409,3.107 7.005,4.66 10.788,4.66 2.355,0 4.557,-0.807 6.602,-2.423 2.046,-1.617 3.07,-3.576 3.07,-5.875 0,-2.487 -1.986,-5.221 -5.952,-8.204 -1.489,-1.305 -3.69,-2.954 -6.603,-4.943 l -9.579,-3.449 c -2.232,-0.809 -3.349,-1.99 -3.349,-3.543 0,-2.921 1.736,-5.097 5.208,-6.526 2.542,-1.058 5.488,-1.585 8.835,-1.585 3.596,0 7.658,0.352 12.184,1.059 0.558,0.064 1.983,0.385 4.277,0.963 1.798,0.449 3.255,0.675 4.371,0.675 1.426,0 2.14,-0.315 2.14,-0.94" /></g><g
           transform="translate(399.5283,155.3058)"
           id="g92"><path
             id="path94"
             style="fill:#1d1d1d;fill-opacity:1;fill-rule:nonzero;stroke:none"
             d="m 0,0 c -1.179,0 -2.311,0.465 -3.395,1.395 -1.084,0.93 -1.564,1.984 -1.441,3.162 l 1.302,15.345 c 0,1.053 -0.078,2.619 -0.233,4.697 -0.155,2.076 -0.232,3.641 -0.232,4.696 0,1.674 0.867,3.348 2.604,5.022 1.735,1.674 3.471,2.511 5.208,2.511 1.053,0 2.402,-0.604 4.045,-1.813 1.643,-1.209 2.93,-1.814 3.86,-1.814 0.805,0 2.883,1.224 6.231,3.673 3.348,2.449 6.045,3.674 8.091,3.674 0.93,0 1.86,-0.217 2.79,-0.65 1.239,-0.495 1.86,-1.145 1.86,-1.948 0,-0.866 -1.488,-1.764 -4.464,-2.691 C 24.427,34.765 22.63,34.27 20.832,33.775 19.653,33.464 16.026,29.319 9.951,21.341 8.71,19.732 7.936,17.753 7.626,15.403 7.563,14.907 7.501,12.819 7.44,9.139 7.378,5.458 6.479,2.969 4.743,1.67 3.316,0.557 1.735,0 0,0" /></g><g
           transform="translate(472.1611,201.5265)"
           id="g96"><path
             id="path98"
             style="fill:#1d1d1d;fill-opacity:1;fill-rule:nonzero;stroke:none"
             d="m 0,0 c 0,-0.93 -0.807,-2.078 -2.418,-3.44 -1.179,-0.931 -2.357,-1.831 -3.534,-2.698 -1.551,-1.178 -3.41,-3.937 -5.58,-8.277 -1.861,-3.658 -3.255,-6.975 -4.185,-9.95 -5.085,-15.687 -9.207,-23.53 -12.369,-23.53 -1.427,0 -2.388,0.528 -2.883,1.582 -0.744,1.673 -1.923,4.122 -3.534,7.346 -0.931,1.488 -2.232,3.751 -3.906,6.789 -0.683,1.674 -1.767,4.154 -3.255,7.441 -0.93,1.674 -1.86,3.378 -2.79,5.114 -1.055,2.046 -1.581,3.874 -1.581,5.487 0,1.489 0.449,2.883 1.348,4.185 0.898,1.303 2.061,1.953 3.488,1.953 0.495,0 1.084,-0.218 1.766,-0.65 0.682,-0.435 1.117,-0.87 1.303,-1.303 0.805,-2.109 2.107,-5.208 3.905,-9.3 0.869,-1.736 2.201,-4.31 3.999,-7.719 0.745,-1.613 1.489,-3.255 2.233,-4.928 1.239,-2.418 2.355,-3.627 3.347,-3.627 0.869,0 1.457,0.495 1.768,1.487 0.495,1.922 1.363,4.711 2.604,8.37 1.488,3.844 3.906,8.68 7.253,14.508 4.836,8.431 8.587,12.648 11.253,12.648 C -0.59,1.488 0,0.991 0,0" /></g><g
           transform="translate(490.0186,186.3243)"
           id="g100"><path
             id="path102"
             style="fill:#1d1d1d;fill-opacity:1;fill-rule:nonzero;stroke:none"
             d="m 0,0 c 0,1.624 -0.776,2.906 -2.325,3.845 -1.302,0.875 -2.79,1.313 -4.464,1.313 -1.736,0 -3.441,-0.531 -5.115,-1.594 -1.799,-1.251 -2.698,-2.72 -2.698,-4.407 0,-1.626 0.745,-2.939 2.233,-3.939 1.302,-0.814 2.79,-1.22 4.464,-1.22 1.735,0 3.487,0.579 5.255,1.735 C -0.884,-3.109 0,-1.688 0,0 m 19.623,-22.937 c 0,-0.939 -0.993,-1.879 -2.977,-2.818 -1.426,-0.753 -2.822,-1.285 -4.184,-1.598 -10.479,-2.569 -17.857,-3.851 -22.134,-3.851 -11.099,0 -16.647,3.229 -16.647,9.691 0,6.089 1.176,11.434 3.534,16.032 2.169,4.1 5.64,8.325 10.416,12.675 3.409,3.107 7.005,4.66 10.788,4.66 2.355,0 4.557,-0.807 6.602,-2.423 2.046,-1.617 3.07,-3.576 3.07,-5.875 0,-2.487 -1.986,-5.221 -5.952,-8.204 -1.489,-1.305 -3.69,-2.954 -6.603,-4.943 l -9.579,-3.449 c -2.232,-0.809 -3.349,-1.99 -3.349,-3.543 0,-2.921 1.736,-5.097 5.208,-6.526 2.542,-1.058 5.488,-1.585 8.835,-1.585 3.596,0 7.658,0.352 12.184,1.059 0.558,0.064 1.983,0.385 4.277,0.963 1.798,0.449 3.255,0.675 4.371,0.675 1.426,0 2.14,-0.315 2.14,-0.94" /></g><path
           id="path104"
           style="fill:#1d1d1d;fill-opacity:1;fill-rule:nonzero;stroke:none"
           d="m 87.284,125.419 h 5.88 v -1.728 h -5.88 z" /><g
           transform="translate(121.5957,119.9474)"
           id="g106"><path
             id="path108"
             style="fill:#1d1d1d;fill-opacity:1;fill-rule:nonzero;stroke:none"
             d="m 0,0 c -0.976,-0.545 -2.004,-0.944 -3.084,-1.2 -1.079,-0.256 -2.172,-0.384 -3.275,-0.384 -1.328,0 -2.544,0.216 -3.649,0.647 -1.103,0.433 -2.059,1.041 -2.868,1.825 -0.808,0.784 -1.436,1.723 -1.884,2.82 -0.448,1.096 -0.672,2.308 -0.672,3.636 0,1.344 0.237,2.563 0.708,3.66 0.472,1.096 1.124,2.031 1.956,2.808 0.832,0.776 1.8,1.379 2.905,1.812 1.103,0.432 2.296,0.647 3.576,0.647 1.119,0 2.195,-0.167 3.227,-0.503 1.033,-0.336 1.956,-0.913 2.773,-1.728 L -1.8,12.456 c -0.576,0.624 -1.276,1.104 -2.099,1.44 -0.825,0.335 -1.668,0.503 -2.533,0.503 -0.975,0 -1.88,-0.175 -2.712,-0.527 -0.832,-0.352 -1.556,-0.841 -2.171,-1.465 -0.617,-0.624 -1.097,-1.367 -1.441,-2.231 -0.344,-0.864 -0.515,-1.809 -0.515,-2.832 0,-1.008 0.171,-1.945 0.515,-2.808 0.344,-0.864 0.824,-1.612 1.441,-2.244 0.615,-0.633 1.355,-1.125 2.219,-1.477 0.865,-0.351 1.816,-0.527 2.857,-0.527 0.687,0 1.407,0.084 2.16,0.252 0.751,0.168 1.439,0.411 2.063,0.731 V 6.479 H -5.928 V 8.352 H 0 Z" /></g><g
           transform="translate(141.6367,125.2755)"
           id="g110"><path
             id="path112"
             style="fill:#1d1d1d;fill-opacity:1;fill-rule:nonzero;stroke:none"
             d="m 0,0 c 0,-0.929 -0.116,-1.809 -0.349,-2.641 -0.232,-0.832 -0.599,-1.564 -1.103,-2.196 -0.504,-0.632 -1.164,-1.136 -1.981,-1.512 -0.815,-0.376 -1.807,-0.563 -2.975,-0.563 -1.168,0 -2.16,0.187 -2.977,0.563 -0.815,0.376 -1.475,0.88 -1.979,1.512 -0.504,0.632 -0.872,1.364 -1.105,2.196 -0.231,0.832 -0.347,1.712 -0.347,2.641 v 10.512 h 2.015 V 0.287 c 0,-0.687 0.072,-1.351 0.217,-1.991 0.144,-0.641 0.384,-1.209 0.72,-1.704 0.336,-0.496 0.783,-0.893 1.343,-1.189 0.56,-0.296 1.264,-0.443 2.113,-0.443 0.847,0 1.552,0.147 2.111,0.443 0.561,0.296 1.009,0.693 1.345,1.189 0.336,0.495 0.576,1.063 0.72,1.704 0.143,0.64 0.215,1.304 0.215,1.991 V 10.512 H 0 Z" /></g><g
           transform="translate(148.8604,135.7872)"
           id="g114"><path
             id="path116"
             style="fill:#1d1d1d;fill-opacity:1;fill-rule:nonzero;stroke:none"
             d="M 0,0 H 10.68 V -1.872 H 2.016 V -7.2 h 8.088 V -9.072 H 2.016 v -6.048 h 9.095 v -1.872 H 0 Z" /></g><g
           transform="translate(174.2275,132.7872)"
           id="g118"><path
             id="path120"
             style="fill:#1d1d1d;fill-opacity:1;fill-rule:nonzero;stroke:none"
             d="M 0,0 C -0.336,0.544 -0.784,0.939 -1.344,1.187 -1.904,1.436 -2.488,1.56 -3.096,1.56 -3.544,1.56 -3.983,1.504 -4.416,1.392 -4.848,1.279 -5.236,1.111 -5.58,0.888 -5.924,0.663 -6.2,0.368 -6.408,0 -6.616,-0.368 -6.72,-0.801 -6.72,-1.296 c 0,-0.385 0.06,-0.725 0.18,-1.02 0.12,-0.296 0.316,-0.564 0.588,-0.804 0.272,-0.24 0.64,-0.464 1.104,-0.672 0.464,-0.208 1.033,-0.416 1.704,-0.624 0.656,-0.208 1.292,-0.433 1.909,-0.672 0.615,-0.24 1.159,-0.544 1.631,-0.912 0.472,-0.368 0.848,-0.828 1.128,-1.38 0.28,-0.553 0.42,-1.244 0.42,-2.076 0,-0.849 -0.168,-1.584 -0.504,-2.208 -0.336,-0.624 -0.78,-1.14 -1.332,-1.548 -0.551,-0.408 -1.188,-0.712 -1.908,-0.912 -0.72,-0.2 -1.464,-0.3 -2.232,-0.3 -0.496,0 -0.992,0.044 -1.488,0.132 -0.496,0.088 -0.972,0.224 -1.428,0.408 -0.455,0.184 -0.884,0.424 -1.283,0.72 -0.401,0.296 -0.745,0.66 -1.033,1.092 l 1.728,1.416 c 0.368,-0.624 0.88,-1.096 1.536,-1.416 0.656,-0.321 1.353,-0.48 2.088,-0.48 0.433,0 0.868,0.064 1.308,0.192 0.44,0.128 0.836,0.315 1.188,0.564 0.352,0.248 0.64,0.556 0.864,0.924 0.224,0.368 0.336,0.792 0.336,1.271 0,0.529 -0.088,0.956 -0.263,1.285 -0.177,0.328 -0.449,0.612 -0.817,0.852 -0.368,0.239 -0.832,0.456 -1.392,0.648 -0.56,0.192 -1.216,0.416 -1.968,0.671 -0.608,0.193 -1.168,0.413 -1.68,0.661 -0.512,0.248 -0.956,0.551 -1.332,0.912 -0.376,0.36 -0.672,0.792 -0.888,1.296 -0.215,0.504 -0.324,1.108 -0.324,1.812 0,0.816 0.16,1.527 0.481,2.136 0.319,0.607 0.752,1.116 1.295,1.524 0.544,0.408 1.16,0.716 1.848,0.924 0.688,0.207 1.408,0.312 2.16,0.312 0.96,0 1.836,-0.149 2.628,-0.444 0.792,-0.297 1.5,-0.812 2.124,-1.549 z" /></g><g
           transform="translate(193.9795,133.9152)"
           id="g122"><path
             id="path124"
             style="fill:#1d1d1d;fill-opacity:1;fill-rule:nonzero;stroke:none"
             d="M 0,0 H -5.615 V -15.12 H -7.632 V 0 h -5.616 V 1.872 H 0 Z" /></g><g
           transform="translate(209.1719,135.7872)"
           id="g126"><path
             id="path128"
             style="fill:#1d1d1d;fill-opacity:1;fill-rule:nonzero;stroke:none"
             d="m 0,0 h 2.016 v -7.2 h 9.072 V 0 h 2.016 v -16.992 h -2.016 v 7.92 H 2.016 v -7.92 H 0 Z" /></g><g
           transform="translate(237.4668,120.2355)"
           id="g130"><path
             id="path132"
             style="fill:#1d1d1d;fill-opacity:1;fill-rule:nonzero;stroke:none"
             d="M 0,0 C 0.992,0 1.9,0.184 2.725,0.552 3.548,0.92 4.256,1.424 4.849,2.063 5.439,2.703 5.9,3.451 6.229,4.308 6.556,5.163 6.72,6.079 6.72,7.056 6.72,8.031 6.556,8.947 6.229,9.804 5.9,10.659 5.439,11.407 4.849,12.048 4.256,12.688 3.548,13.191 2.725,13.56 1.9,13.928 0.992,14.111 0,14.111 -0.992,14.111 -1.9,13.928 -2.724,13.56 -3.548,13.191 -4.256,12.688 -4.848,12.048 -5.439,11.407 -5.9,10.659 -6.228,9.804 -6.556,8.947 -6.72,8.031 -6.72,7.056 -6.72,6.079 -6.556,5.163 -6.228,4.308 -5.9,3.451 -5.439,2.703 -4.848,2.063 -4.256,1.424 -3.548,0.92 -2.724,0.552 -1.9,0.184 -0.992,0 0,0 m 0,-1.872 c -1.296,0 -2.483,0.224 -3.563,0.672 -1.081,0.447 -2.017,1.067 -2.809,1.859 -0.792,0.792 -1.408,1.737 -1.848,2.832 -0.44,1.096 -0.66,2.284 -0.66,3.565 0,1.279 0.22,2.467 0.66,3.563 0.44,1.096 1.056,2.04 1.848,2.832 0.792,0.792 1.728,1.412 2.809,1.861 1.08,0.448 2.267,0.671 3.563,0.671 1.296,0 2.484,-0.223 3.564,-0.671 C 4.645,14.863 5.58,14.243 6.372,13.451 7.164,12.659 7.78,11.715 8.22,10.619 8.66,9.523 8.88,8.335 8.88,7.056 8.88,5.775 8.66,4.587 8.22,3.491 7.78,2.396 7.164,1.451 6.372,0.659 5.58,-0.133 4.645,-0.753 3.564,-1.2 2.484,-1.648 1.296,-1.872 0,-1.872" /></g><g
           transform="translate(265.4033,125.2755)"
           id="g134"><path
             id="path136"
             style="fill:#1d1d1d;fill-opacity:1;fill-rule:nonzero;stroke:none"
             d="m 0,0 c 0,-0.929 -0.116,-1.809 -0.349,-2.641 -0.232,-0.832 -0.599,-1.564 -1.103,-2.196 -0.504,-0.632 -1.164,-1.136 -1.981,-1.512 -0.815,-0.376 -1.807,-0.563 -2.975,-0.563 -1.168,0 -2.16,0.187 -2.977,0.563 -0.815,0.376 -1.475,0.88 -1.979,1.512 -0.504,0.632 -0.872,1.364 -1.105,2.196 -0.231,0.832 -0.347,1.712 -0.347,2.641 v 10.512 h 2.015 V 0.287 c 0,-0.687 0.072,-1.351 0.217,-1.991 0.144,-0.641 0.384,-1.209 0.72,-1.704 0.336,-0.496 0.783,-0.893 1.343,-1.189 0.56,-0.296 1.264,-0.443 2.113,-0.443 0.847,0 1.552,0.147 2.111,0.443 0.561,0.296 1.009,0.693 1.345,1.189 0.336,0.495 0.576,1.063 0.72,1.704 0.143,0.64 0.215,1.304 0.215,1.991 V 10.512 H 0 Z" /></g><g
           transform="translate(280.6914,132.7872)"
           id="g138"><path
             id="path140"
             style="fill:#1d1d1d;fill-opacity:1;fill-rule:nonzero;stroke:none"
             d="M 0,0 C -0.336,0.544 -0.784,0.939 -1.344,1.187 -1.904,1.436 -2.488,1.56 -3.096,1.56 -3.544,1.56 -3.983,1.504 -4.416,1.392 -4.848,1.279 -5.236,1.111 -5.58,0.888 -5.924,0.663 -6.2,0.368 -6.408,0 -6.616,-0.368 -6.72,-0.801 -6.72,-1.296 c 0,-0.385 0.06,-0.725 0.18,-1.02 0.12,-0.296 0.316,-0.564 0.588,-0.804 0.272,-0.24 0.64,-0.464 1.104,-0.672 0.464,-0.208 1.033,-0.416 1.704,-0.624 0.656,-0.208 1.292,-0.433 1.909,-0.672 0.615,-0.24 1.159,-0.544 1.631,-0.912 0.472,-0.368 0.848,-0.828 1.128,-1.38 0.28,-0.553 0.42,-1.244 0.42,-2.076 0,-0.849 -0.168,-1.584 -0.504,-2.208 -0.336,-0.624 -0.78,-1.14 -1.332,-1.548 -0.551,-0.408 -1.188,-0.712 -1.908,-0.912 -0.72,-0.2 -1.464,-0.3 -2.232,-0.3 -0.496,0 -0.992,0.044 -1.488,0.132 -0.496,0.088 -0.972,0.224 -1.428,0.408 -0.455,0.184 -0.884,0.424 -1.283,0.72 -0.401,0.296 -0.745,0.66 -1.033,1.092 l 1.728,1.416 c 0.368,-0.624 0.88,-1.096 1.536,-1.416 0.656,-0.321 1.353,-0.48 2.088,-0.48 0.433,0 0.868,0.064 1.308,0.192 0.44,0.128 0.836,0.315 1.188,0.564 0.352,0.248 0.64,0.556 0.864,0.924 0.224,0.368 0.336,0.792 0.336,1.271 0,0.529 -0.088,0.956 -0.263,1.285 -0.177,0.328 -0.449,0.612 -0.817,0.852 -0.368,0.239 -0.832,0.456 -1.392,0.648 -0.56,0.192 -1.216,0.416 -1.968,0.671 -0.608,0.193 -1.168,0.413 -1.68,0.661 -0.512,0.248 -0.956,0.551 -1.332,0.912 -0.376,0.36 -0.672,0.792 -0.888,1.296 -0.215,0.504 -0.324,1.108 -0.324,1.812 0,0.816 0.16,1.527 0.481,2.136 0.319,0.607 0.752,1.116 1.295,1.524 0.544,0.408 1.16,0.716 1.848,0.924 0.688,0.207 1.408,0.312 2.16,0.312 0.96,0 1.836,-0.149 2.628,-0.444 0.792,-0.297 1.5,-0.812 2.124,-1.549 z" /></g><g
           transform="translate(289.043,135.7872)"
           id="g142"><path
             id="path144"
             style="fill:#1d1d1d;fill-opacity:1;fill-rule:nonzero;stroke:none"
             d="M 0,0 H 10.68 V -1.872 H 2.016 V -7.2 h 8.088 V -9.072 H 2.016 v -6.048 h 9.095 v -1.872 H 0 Z" /></g><g
           transform="translate(320.9385,129.2355)"
           id="g146"><path
             id="path148"
             style="fill:#1d1d1d;fill-opacity:1;fill-rule:nonzero;stroke:none"
             d="M 0,0 C 0.32,0.176 0.648,0.359 0.984,0.552 1.32,0.743 1.624,0.96 1.896,1.199 2.168,1.439 2.392,1.72 2.568,2.04 2.744,2.359 2.832,2.728 2.832,3.144 2.832,3.768 2.62,4.256 2.196,4.607 1.771,4.959 1.264,5.136 0.672,5.136 0,5.136 -0.576,4.932 -1.056,4.523 -1.536,4.115 -1.776,3.56 -1.776,2.855 -1.776,2.392 -1.652,1.979 -1.404,1.619 -1.156,1.26 -0.888,0.928 -0.6,0.624 Z m -0.504,-2.185 c -0.368,-0.191 -0.728,-0.404 -1.08,-0.635 -0.353,-0.233 -0.672,-0.493 -0.96,-0.781 -0.288,-0.288 -0.52,-0.616 -0.696,-0.983 -0.176,-0.369 -0.264,-0.776 -0.264,-1.225 0,-0.463 0.088,-0.887 0.264,-1.271 0.176,-0.385 0.416,-0.721 0.72,-1.009 0.304,-0.287 0.656,-0.512 1.056,-0.672 0.4,-0.16 0.824,-0.239 1.272,-0.239 0.432,0 0.832,0.063 1.2,0.191 0.368,0.128 0.708,0.3 1.02,0.517 0.312,0.216 0.608,0.464 0.888,0.743 0.279,0.28 0.556,0.58 0.828,0.901 z M 4.968,-7.992 C 4.28,-8.856 3.544,-9.528 2.76,-10.009 c -0.784,-0.479 -1.744,-0.72 -2.88,-0.72 -0.72,0 -1.408,0.109 -2.064,0.325 -0.656,0.216 -1.228,0.531 -1.716,0.948 -0.489,0.415 -0.88,0.924 -1.176,1.523 -0.296,0.601 -0.444,1.285 -0.444,2.052 0,0.592 0.1,1.141 0.3,1.645 0.199,0.504 0.472,0.96 0.816,1.368 0.343,0.408 0.744,0.767 1.2,1.08 0.456,0.311 0.939,0.588 1.452,0.828 -0.561,0.56 -1.04,1.151 -1.44,1.775 -0.4,0.624 -0.6,1.344 -0.6,2.161 0,0.624 0.12,1.179 0.36,1.668 0.24,0.488 0.56,0.895 0.96,1.223 0.4,0.328 0.864,0.576 1.392,0.744 0.528,0.168 1.088,0.252 1.68,0.252 0.576,0 1.12,-0.08 1.632,-0.239 C 2.744,6.464 3.195,6.228 3.588,5.916 3.979,5.604 4.288,5.211 4.512,4.739 4.736,4.268 4.848,3.72 4.848,3.096 4.848,2.567 4.74,2.083 4.524,1.644 4.308,1.203 4.028,0.812 3.684,0.468 3.34,0.123 2.956,-0.188 2.532,-0.469 2.108,-0.749 1.68,-1.001 1.248,-1.225 l 3.6,-3.815 2.28,3.815 h 2.28 l -3.264,-5.231 3.888,-3.984 h -2.76 z" /></g><g
           transform="translate(346.2344,135.7872)"
           id="g150"><path
             id="path152"
             style="fill:#1d1d1d;fill-opacity:1;fill-rule:nonzero;stroke:none"
             d="M 0,0 H 3 L 8.76,-13.32 H 8.808 L 14.615,0 h 2.929 V -16.992 H 15.527 V -2.736 H 15.479 L 9.384,-16.992 H 8.16 L 2.063,-2.736 H 2.016 V -16.992 H 0 Z" /></g><g
           transform="translate(371.0742,135.7872)"
           id="g154"><path
             id="path156"
             style="fill:#1d1d1d;fill-opacity:1;fill-rule:nonzero;stroke:none"
             d="M 0,0 H 10.68 V -1.872 H 2.016 V -7.2 h 8.088 V -9.072 H 2.016 v -6.048 h 9.095 v -1.872 H 0 Z" /></g><g
           transform="translate(388.3779,135.7872)"
           id="g158"><path
             id="path160"
             style="fill:#1d1d1d;fill-opacity:1;fill-rule:nonzero;stroke:none"
             d="M 0,0 H 3 L 8.76,-13.32 H 8.808 L 14.615,0 h 2.929 V -16.992 H 15.527 V -2.736 H 15.479 L 9.384,-16.992 H 8.16 L 2.063,-2.736 H 2.016 V -16.992 H 0 Z" /></g><g
           transform="translate(421.1143,120.2355)"
           id="g162"><path
             id="path164"
             style="fill:#1d1d1d;fill-opacity:1;fill-rule:nonzero;stroke:none"
             d="M 0,0 C 0.992,0 1.9,0.184 2.725,0.552 3.548,0.92 4.256,1.424 4.849,2.063 5.439,2.703 5.9,3.451 6.229,4.308 6.556,5.163 6.72,6.079 6.72,7.056 6.72,8.031 6.556,8.947 6.229,9.804 5.9,10.659 5.439,11.407 4.849,12.048 4.256,12.688 3.548,13.191 2.725,13.56 1.9,13.928 0.992,14.111 0,14.111 -0.992,14.111 -1.9,13.928 -2.724,13.56 -3.548,13.191 -4.256,12.688 -4.848,12.048 -5.439,11.407 -5.9,10.659 -6.228,9.804 -6.556,8.947 -6.72,8.031 -6.72,7.056 -6.72,6.079 -6.556,5.163 -6.228,4.308 -5.9,3.451 -5.439,2.703 -4.848,2.063 -4.256,1.424 -3.548,0.92 -2.724,0.552 -1.9,0.184 -0.992,0 0,0 m 0,-1.872 c -1.296,0 -2.483,0.224 -3.563,0.672 -1.081,0.447 -2.017,1.067 -2.809,1.859 -0.792,0.792 -1.408,1.737 -1.848,2.832 -0.44,1.096 -0.66,2.284 -0.66,3.565 0,1.279 0.22,2.467 0.66,3.563 0.44,1.096 1.056,2.04 1.848,2.832 0.792,0.792 1.728,1.412 2.809,1.861 1.08,0.448 2.267,0.671 3.563,0.671 1.296,0 2.484,-0.223 3.564,-0.671 C 4.645,14.863 5.58,14.243 6.372,13.451 7.164,12.659 7.78,11.715 8.22,10.619 8.66,9.523 8.88,8.335 8.88,7.056 8.88,5.775 8.66,4.587 8.22,3.491 7.78,2.396 7.164,1.451 6.372,0.659 5.58,-0.133 4.645,-0.753 3.564,-1.2 2.484,-1.648 1.296,-1.872 0,-1.872" /></g><g
           transform="translate(438.3223,128.299)"
           id="g166"><path
             id="path168"
             style="fill:#1d1d1d;fill-opacity:1;fill-rule:nonzero;stroke:none"
             d="M 0,0 H 1.8 C 2.36,0 2.94,0.016 3.54,0.048 4.14,0.08 4.692,0.184 5.196,0.36 5.7,0.536 6.116,0.812 6.444,1.188 6.771,1.563 6.937,2.104 6.937,2.808 6.937,3.416 6.816,3.904 6.576,4.272 6.336,4.64 6.02,4.924 5.628,5.124 5.235,5.324 4.796,5.456 4.308,5.521 3.819,5.584 3.328,5.616 2.832,5.616 H 0 Z M -2.016,7.488 H 2.328 C 3.145,7.488 3.956,7.44 4.764,7.344 5.572,7.248 6.296,7.04 6.937,6.72 7.576,6.399 8.096,5.932 8.496,5.316 8.896,4.7 9.096,3.864 9.096,2.808 9.096,1.561 8.72,0.552 7.968,-0.216 7.216,-0.984 6.176,-1.472 4.848,-1.68 L 9.672,-9.504 H 7.2 L 2.592,-1.872 H 0 v -7.632 h -2.016 z" /></g><path
           id="path170"
           style="fill:#1d1d1d;fill-opacity:1;fill-rule:nonzero;stroke:none"
           d="m 454.042,135.787 h 2.016 v -16.992 h -2.016 z" /><g
           transform="translate(463.3535,135.7872)"
           id="g172"><path
             id="path174"
             style="fill:#1d1d1d;fill-opacity:1;fill-rule:nonzero;stroke:none"
             d="M 0,0 H 10.68 V -1.872 H 2.016 V -7.2 h 8.088 V -9.072 H 2.016 v -6.048 h 9.095 v -1.872 H 0 Z" /></g><g
           transform="translate(488.7217,132.7872)"
           id="g176"><path
             id="path178"
             style="fill:#1d1d1d;fill-opacity:1;fill-rule:nonzero;stroke:none"
             d="M 0,0 C -0.336,0.544 -0.784,0.939 -1.344,1.187 -1.904,1.436 -2.488,1.56 -3.096,1.56 -3.544,1.56 -3.983,1.504 -4.416,1.392 -4.848,1.279 -5.236,1.111 -5.58,0.888 -5.924,0.663 -6.2,0.368 -6.408,0 -6.616,-0.368 -6.72,-0.801 -6.72,-1.296 c 0,-0.385 0.06,-0.725 0.18,-1.02 0.12,-0.296 0.316,-0.564 0.588,-0.804 0.272,-0.24 0.64,-0.464 1.104,-0.672 0.464,-0.208 1.033,-0.416 1.704,-0.624 0.656,-0.208 1.292,-0.433 1.909,-0.672 0.615,-0.24 1.159,-0.544 1.631,-0.912 0.472,-0.368 0.848,-0.828 1.128,-1.38 0.28,-0.553 0.42,-1.244 0.42,-2.076 0,-0.849 -0.168,-1.584 -0.504,-2.208 -0.336,-0.624 -0.78,-1.14 -1.332,-1.548 -0.551,-0.408 -1.188,-0.712 -1.908,-0.912 -0.72,-0.2 -1.464,-0.3 -2.232,-0.3 -0.496,0 -0.992,0.044 -1.488,0.132 -0.496,0.088 -0.972,0.224 -1.428,0.408 -0.455,0.184 -0.884,0.424 -1.283,0.72 -0.401,0.296 -0.745,0.66 -1.033,1.092 l 1.728,1.416 c 0.368,-0.624 0.88,-1.096 1.536,-1.416 0.656,-0.321 1.353,-0.48 2.088,-0.48 0.433,0 0.868,0.064 1.308,0.192 0.44,0.128 0.836,0.315 1.188,0.564 0.352,0.248 0.64,0.556 0.864,0.924 0.224,0.368 0.336,0.792 0.336,1.271 0,0.529 -0.088,0.956 -0.263,1.285 -0.177,0.328 -0.449,0.612 -0.817,0.852 -0.368,0.239 -0.832,0.456 -1.392,0.648 -0.56,0.192 -1.216,0.416 -1.968,0.671 -0.608,0.193 -1.168,0.413 -1.68,0.661 -0.512,0.248 -0.956,0.551 -1.332,0.912 -0.376,0.36 -0.672,0.792 -0.888,1.296 -0.215,0.504 -0.324,1.108 -0.324,1.812 0,0.816 0.16,1.527 0.481,2.136 0.319,0.607 0.752,1.116 1.295,1.524 0.544,0.408 1.16,0.716 1.848,0.924 0.688,0.207 1.408,0.312 2.16,0.312 0.96,0 1.836,-0.149 2.628,-0.444 0.792,-0.297 1.5,-0.812 2.124,-1.549 z" /></g><path
           id="path180"
           style="fill:#1d1d1d;fill-opacity:1;fill-rule:nonzero;stroke:none"
           d="m 503.761,125.419 h 5.88 v -1.728 h -5.88 z" /></g></g></g></svg>